<mxfile host="app.diagrams.net" modified="2023-01-17T16:16:50.895Z" agent="5.0 (Windows NT 10.0; Win64; x64) AppleWebKit/537.36 (KHTML, like Gecko) Chrome/109.0.0.0 Safari/537.36" etag="yB52Y8E4ZoVJez6bDvA4" version="20.8.5" type="github">
  <diagram id="10PIrQ15XCE1AdCwMesi" name="Page-1">
    <mxGraphModel dx="2336" dy="878" grid="1" gridSize="10" guides="1" tooltips="1" connect="1" arrows="1" fold="1" page="1" pageScale="1" pageWidth="827" pageHeight="1169" math="0" shadow="0">
      <root>
        <mxCell id="0" />
        <mxCell id="1" parent="0" />
        <mxCell id="SPPRSnL4dUSBw2_I5MhD-3" style="edgeStyle=orthogonalEdgeStyle;rounded=0;orthogonalLoop=1;jettySize=auto;html=1;exitX=0.5;exitY=1;exitDx=0;exitDy=0;entryX=0.5;entryY=0;entryDx=0;entryDy=0;" edge="1" parent="1" source="YLUMR1cYHEGW7moaqAbl-24" target="YLUMR1cYHEGW7moaqAbl-29">
          <mxGeometry relative="1" as="geometry" />
        </mxCell>
        <mxCell id="SPPRSnL4dUSBw2_I5MhD-4" style="edgeStyle=orthogonalEdgeStyle;rounded=0;orthogonalLoop=1;jettySize=auto;html=1;exitX=0.5;exitY=1;exitDx=0;exitDy=0;entryX=0.5;entryY=0;entryDx=0;entryDy=0;" edge="1" parent="1" source="YLUMR1cYHEGW7moaqAbl-24" target="YLUMR1cYHEGW7moaqAbl-60">
          <mxGeometry relative="1" as="geometry" />
        </mxCell>
        <mxCell id="YLUMR1cYHEGW7moaqAbl-24" value="Détecteur de chute à vélo" style="swimlane;fontStyle=0;childLayout=stackLayout;horizontal=1;startSize=30;horizontalStack=0;resizeParent=1;resizeParentMax=0;resizeLast=0;collapsible=1;marginBottom=0;whiteSpace=wrap;html=1;strokeWidth=1;fillColor=#ffe6cc;strokeColor=default;" parent="1" vertex="1">
          <mxGeometry x="-100" y="20" width="200" height="160" as="geometry" />
        </mxCell>
        <mxCell id="YLUMR1cYHEGW7moaqAbl-25" value="&amp;lt;&amp;lt;Requis&amp;gt;&amp;gt;" style="text;strokeColor=none;fillColor=#fff2cc;align=center;verticalAlign=middle;spacingLeft=4;spacingRight=4;overflow=hidden;points=[[0,0.5],[1,0.5]];portConstraint=eastwest;rotatable=0;whiteSpace=wrap;html=1;strokeWidth=0;" parent="YLUMR1cYHEGW7moaqAbl-24" vertex="1">
          <mxGeometry y="30" width="200" height="30" as="geometry" />
        </mxCell>
        <mxCell id="YLUMR1cYHEGW7moaqAbl-26" value="Id: &quot;1&quot;" style="text;strokeColor=none;fillColor=#fff2cc;align=left;verticalAlign=middle;spacingLeft=4;spacingRight=4;overflow=hidden;points=[[0,0.5],[1,0.5]];portConstraint=eastwest;rotatable=0;whiteSpace=wrap;html=1;strokeWidth=0;" parent="YLUMR1cYHEGW7moaqAbl-24" vertex="1">
          <mxGeometry y="60" width="200" height="30" as="geometry" />
        </mxCell>
        <mxCell id="YLUMR1cYHEGW7moaqAbl-27" value="text: &quot;Améliorer la rapidité de recherche d&#39;un blessé lors d&#39;une sortie/course de vélos.&quot;" style="text;strokeColor=none;fillColor=#fff2cc;align=left;verticalAlign=middle;spacingLeft=4;spacingRight=4;overflow=hidden;points=[[0,0.5],[1,0.5]];portConstraint=eastwest;rotatable=0;whiteSpace=wrap;html=1;strokeWidth=0;" parent="YLUMR1cYHEGW7moaqAbl-24" vertex="1">
          <mxGeometry y="90" width="200" height="70" as="geometry" />
        </mxCell>
        <mxCell id="YLUMR1cYHEGW7moaqAbl-38" value="Interface homme/machine" style="swimlane;fontStyle=0;childLayout=stackLayout;horizontal=1;startSize=30;horizontalStack=0;resizeParent=1;resizeParentMax=0;resizeLast=0;collapsible=1;marginBottom=0;whiteSpace=wrap;html=1;strokeWidth=1;fillColor=#ffe6cc;strokeColor=default;" parent="1" vertex="1">
          <mxGeometry x="-560" y="440" width="200" height="160" as="geometry">
            <mxRectangle x="-560" y="440" width="180" height="30" as="alternateBounds" />
          </mxGeometry>
        </mxCell>
        <mxCell id="YLUMR1cYHEGW7moaqAbl-39" value="&amp;lt;&amp;lt;Requis&amp;gt;&amp;gt;" style="text;strokeColor=none;fillColor=#fff2cc;align=center;verticalAlign=middle;spacingLeft=4;spacingRight=4;overflow=hidden;points=[[0,0.5],[1,0.5]];portConstraint=eastwest;rotatable=0;whiteSpace=wrap;html=1;strokeWidth=0;" parent="YLUMR1cYHEGW7moaqAbl-38" vertex="1">
          <mxGeometry y="30" width="200" height="30" as="geometry" />
        </mxCell>
        <mxCell id="YLUMR1cYHEGW7moaqAbl-40" value="Id: &quot;1.1.2&quot;" style="text;strokeColor=none;fillColor=#fff2cc;align=left;verticalAlign=middle;spacingLeft=4;spacingRight=4;overflow=hidden;points=[[0,0.5],[1,0.5]];portConstraint=eastwest;rotatable=0;whiteSpace=wrap;html=1;strokeWidth=0;" parent="YLUMR1cYHEGW7moaqAbl-38" vertex="1">
          <mxGeometry y="60" width="200" height="30" as="geometry" />
        </mxCell>
        <mxCell id="YLUMR1cYHEGW7moaqAbl-41" value="text: &quot;Doit montrer de manière simple et lisible les données.&quot;" style="text;strokeColor=none;fillColor=#fff2cc;align=left;verticalAlign=middle;spacingLeft=4;spacingRight=4;overflow=hidden;points=[[0,0.5],[1,0.5]];portConstraint=eastwest;rotatable=0;whiteSpace=wrap;html=1;strokeWidth=0;" parent="YLUMR1cYHEGW7moaqAbl-38" vertex="1">
          <mxGeometry y="90" width="200" height="70" as="geometry" />
        </mxCell>
        <mxCell id="YLUMR1cYHEGW7moaqAbl-34" value="Disque dur" style="swimlane;fontStyle=0;childLayout=stackLayout;horizontal=1;startSize=30;horizontalStack=0;resizeParent=1;resizeParentMax=0;resizeLast=0;collapsible=1;marginBottom=0;whiteSpace=wrap;html=1;strokeWidth=1;fillColor=#ffe6cc;strokeColor=default;" parent="1" vertex="1">
          <mxGeometry x="-800" y="440" width="200" height="160" as="geometry">
            <mxRectangle x="-810" y="430" width="100" height="30" as="alternateBounds" />
          </mxGeometry>
        </mxCell>
        <mxCell id="YLUMR1cYHEGW7moaqAbl-35" value="&amp;lt;&amp;lt;Requis&amp;gt;&amp;gt;" style="text;strokeColor=none;fillColor=#fff2cc;align=center;verticalAlign=middle;spacingLeft=4;spacingRight=4;overflow=hidden;points=[[0,0.5],[1,0.5]];portConstraint=eastwest;rotatable=0;whiteSpace=wrap;html=1;strokeWidth=0;" parent="YLUMR1cYHEGW7moaqAbl-34" vertex="1">
          <mxGeometry y="30" width="200" height="30" as="geometry" />
        </mxCell>
        <mxCell id="YLUMR1cYHEGW7moaqAbl-36" value="Id: &quot;1.1.1&quot;" style="text;strokeColor=none;fillColor=#fff2cc;align=left;verticalAlign=middle;spacingLeft=4;spacingRight=4;overflow=hidden;points=[[0,0.5],[1,0.5]];portConstraint=eastwest;rotatable=0;whiteSpace=wrap;html=1;strokeWidth=0;" parent="YLUMR1cYHEGW7moaqAbl-34" vertex="1">
          <mxGeometry y="60" width="200" height="30" as="geometry" />
        </mxCell>
        <mxCell id="YLUMR1cYHEGW7moaqAbl-37" value="text: &quot;Doit pouvoir stocker au moins 24h de données sur l&#39;utilisateur.&lt;br&gt;Environ 16Go de stockage.&quot;" style="text;strokeColor=none;fillColor=#fff2cc;align=left;verticalAlign=middle;spacingLeft=4;spacingRight=4;overflow=hidden;points=[[0,0.5],[1,0.5]];portConstraint=eastwest;rotatable=0;whiteSpace=wrap;html=1;strokeWidth=0;" parent="YLUMR1cYHEGW7moaqAbl-34" vertex="1">
          <mxGeometry y="90" width="200" height="70" as="geometry" />
        </mxCell>
        <mxCell id="SPPRSnL4dUSBw2_I5MhD-1" style="edgeStyle=orthogonalEdgeStyle;rounded=0;orthogonalLoop=1;jettySize=auto;html=1;exitX=0.75;exitY=1;exitDx=0;exitDy=0;entryX=0.5;entryY=0;entryDx=0;entryDy=0;" edge="1" parent="1" source="YLUMR1cYHEGW7moaqAbl-29" target="YLUMR1cYHEGW7moaqAbl-38">
          <mxGeometry relative="1" as="geometry" />
        </mxCell>
        <mxCell id="SPPRSnL4dUSBw2_I5MhD-2" style="edgeStyle=orthogonalEdgeStyle;rounded=0;orthogonalLoop=1;jettySize=auto;html=1;exitX=0.25;exitY=1;exitDx=0;exitDy=0;entryX=0.5;entryY=0;entryDx=0;entryDy=0;" edge="1" parent="1" source="YLUMR1cYHEGW7moaqAbl-29" target="YLUMR1cYHEGW7moaqAbl-34">
          <mxGeometry relative="1" as="geometry" />
        </mxCell>
        <mxCell id="YLUMR1cYHEGW7moaqAbl-29" value="Serveur" style="swimlane;fontStyle=0;childLayout=stackLayout;horizontal=1;startSize=30;horizontalStack=0;resizeParent=1;resizeParentMax=0;resizeLast=0;collapsible=1;marginBottom=0;whiteSpace=wrap;html=1;strokeWidth=1;fillColor=#ffe6cc;strokeColor=default;" parent="1" vertex="1">
          <mxGeometry x="-680" y="240" width="200" height="160" as="geometry">
            <mxRectangle x="-790" y="180" width="80" height="30" as="alternateBounds" />
          </mxGeometry>
        </mxCell>
        <mxCell id="YLUMR1cYHEGW7moaqAbl-30" value="&amp;lt;&amp;lt;Requis&amp;gt;&amp;gt;" style="text;strokeColor=none;fillColor=#fff2cc;align=center;verticalAlign=middle;spacingLeft=4;spacingRight=4;overflow=hidden;points=[[0,0.5],[1,0.5]];portConstraint=eastwest;rotatable=0;whiteSpace=wrap;html=1;strokeWidth=0;" parent="YLUMR1cYHEGW7moaqAbl-29" vertex="1">
          <mxGeometry y="30" width="200" height="30" as="geometry" />
        </mxCell>
        <mxCell id="YLUMR1cYHEGW7moaqAbl-31" value="Id: &quot;1.1&quot;" style="text;strokeColor=none;fillColor=#fff2cc;align=left;verticalAlign=middle;spacingLeft=4;spacingRight=4;overflow=hidden;points=[[0,0.5],[1,0.5]];portConstraint=eastwest;rotatable=0;whiteSpace=wrap;html=1;strokeWidth=0;" parent="YLUMR1cYHEGW7moaqAbl-29" vertex="1">
          <mxGeometry y="60" width="200" height="30" as="geometry" />
        </mxCell>
        <mxCell id="YLUMR1cYHEGW7moaqAbl-32" value="text: &quot;Doit pouvoir stocker et partager des données.&quot;" style="text;strokeColor=none;fillColor=#fff2cc;align=left;verticalAlign=middle;spacingLeft=4;spacingRight=4;overflow=hidden;points=[[0,0.5],[1,0.5]];portConstraint=eastwest;rotatable=0;whiteSpace=wrap;html=1;strokeWidth=0;" parent="YLUMR1cYHEGW7moaqAbl-29" vertex="1">
          <mxGeometry y="90" width="200" height="70" as="geometry" />
        </mxCell>
        <mxCell id="SPPRSnL4dUSBw2_I5MhD-6" style="edgeStyle=orthogonalEdgeStyle;rounded=0;orthogonalLoop=1;jettySize=auto;html=1;exitX=0.5;exitY=1;exitDx=0;exitDy=0;entryX=0;entryY=0.5;entryDx=0;entryDy=0;" edge="1" parent="1" source="YLUMR1cYHEGW7moaqAbl-60" target="YLUMR1cYHEGW7moaqAbl-74">
          <mxGeometry relative="1" as="geometry" />
        </mxCell>
        <mxCell id="YLUMR1cYHEGW7moaqAbl-60" value="Capteur GPS" style="swimlane;fontStyle=0;childLayout=stackLayout;horizontal=1;startSize=30;horizontalStack=0;resizeParent=1;resizeParentMax=0;resizeLast=0;collapsible=1;marginBottom=0;whiteSpace=wrap;html=1;strokeWidth=1;fillColor=#ffe6cc;strokeColor=default;" parent="1" vertex="1">
          <mxGeometry x="-320" y="240" width="200" height="160" as="geometry">
            <mxRectangle x="210" y="260" width="110" height="30" as="alternateBounds" />
          </mxGeometry>
        </mxCell>
        <mxCell id="YLUMR1cYHEGW7moaqAbl-61" value="&amp;lt;&amp;lt;Requis&amp;gt;&amp;gt;" style="text;strokeColor=none;fillColor=#fff2cc;align=center;verticalAlign=middle;spacingLeft=4;spacingRight=4;overflow=hidden;points=[[0,0.5],[1,0.5]];portConstraint=eastwest;rotatable=0;whiteSpace=wrap;html=1;strokeWidth=0;" parent="YLUMR1cYHEGW7moaqAbl-60" vertex="1">
          <mxGeometry y="30" width="200" height="30" as="geometry" />
        </mxCell>
        <mxCell id="YLUMR1cYHEGW7moaqAbl-62" value="Id: &quot;1.2&quot;" style="text;strokeColor=none;fillColor=#fff2cc;align=left;verticalAlign=middle;spacingLeft=4;spacingRight=4;overflow=hidden;points=[[0,0.5],[1,0.5]];portConstraint=eastwest;rotatable=0;whiteSpace=wrap;html=1;strokeWidth=0;" parent="YLUMR1cYHEGW7moaqAbl-60" vertex="1">
          <mxGeometry y="60" width="200" height="30" as="geometry" />
        </mxCell>
        <mxCell id="YLUMR1cYHEGW7moaqAbl-63" value="text: &quot;Doit pouvoir s&#39;adapter à Arduino et donner les coordonnées exact de l&#39;utilisateur.&quot;" style="text;strokeColor=none;fillColor=#fff2cc;align=left;verticalAlign=middle;spacingLeft=4;spacingRight=4;overflow=hidden;points=[[0,0.5],[1,0.5]];portConstraint=eastwest;rotatable=0;whiteSpace=wrap;html=1;strokeWidth=0;" parent="YLUMR1cYHEGW7moaqAbl-60" vertex="1">
          <mxGeometry y="90" width="200" height="70" as="geometry" />
        </mxCell>
        <mxCell id="YLUMR1cYHEGW7moaqAbl-74" value="Support" style="swimlane;fontStyle=0;childLayout=stackLayout;horizontal=1;startSize=30;horizontalStack=0;resizeParent=1;resizeParentMax=0;resizeLast=0;collapsible=1;marginBottom=0;whiteSpace=wrap;html=1;strokeWidth=1;fillColor=#ffe6cc;strokeColor=default;" parent="1" vertex="1">
          <mxGeometry x="-120" y="670" width="200" height="160" as="geometry">
            <mxRectangle x="210" y="330" width="80" height="30" as="alternateBounds" />
          </mxGeometry>
        </mxCell>
        <mxCell id="YLUMR1cYHEGW7moaqAbl-75" value="&amp;lt;&amp;lt;Requis&amp;gt;&amp;gt;" style="text;strokeColor=none;fillColor=#fff2cc;align=center;verticalAlign=middle;spacingLeft=4;spacingRight=4;overflow=hidden;points=[[0,0.5],[1,0.5]];portConstraint=eastwest;rotatable=0;whiteSpace=wrap;html=1;strokeWidth=0;" parent="YLUMR1cYHEGW7moaqAbl-74" vertex="1">
          <mxGeometry y="30" width="200" height="30" as="geometry" />
        </mxCell>
        <mxCell id="YLUMR1cYHEGW7moaqAbl-76" value="Id: &quot;1.0.1&quot;" style="text;strokeColor=none;fillColor=#fff2cc;align=left;verticalAlign=middle;spacingLeft=4;spacingRight=4;overflow=hidden;points=[[0,0.5],[1,0.5]];portConstraint=eastwest;rotatable=0;whiteSpace=wrap;html=1;strokeWidth=0;" parent="YLUMR1cYHEGW7moaqAbl-74" vertex="1">
          <mxGeometry y="60" width="200" height="30" as="geometry" />
        </mxCell>
        <mxCell id="YLUMR1cYHEGW7moaqAbl-77" value="text: &quot;Ne doit pas déranger le cycliste dans sa course.&lt;br&gt;Doit pouvoir s&#39;implémenter sur tous les vélos&quot;" style="text;strokeColor=none;fillColor=#fff2cc;align=left;verticalAlign=middle;spacingLeft=4;spacingRight=4;overflow=hidden;points=[[0,0.5],[1,0.5]];portConstraint=eastwest;rotatable=0;whiteSpace=wrap;html=1;strokeWidth=0;" parent="YLUMR1cYHEGW7moaqAbl-74" vertex="1">
          <mxGeometry y="90" width="200" height="70" as="geometry" />
        </mxCell>
        <mxCell id="YLUMR1cYHEGW7moaqAbl-89" value="Détecteur de chute à vélo" style="swimlane;fontStyle=0;childLayout=stackLayout;horizontal=1;startSize=30;horizontalStack=0;resizeParent=1;resizeParentMax=0;resizeLast=0;collapsible=1;marginBottom=0;whiteSpace=wrap;html=1;strokeWidth=1;fillColor=#ffe6cc;strokeColor=default;" parent="1" vertex="1">
          <mxGeometry x="120" y="810" width="200" height="160" as="geometry">
            <mxRectangle x="280" y="1010" width="180" height="30" as="alternateBounds" />
          </mxGeometry>
        </mxCell>
        <mxCell id="YLUMR1cYHEGW7moaqAbl-90" value="&amp;lt;&amp;lt;Requis&amp;gt;&amp;gt;" style="text;strokeColor=none;fillColor=#fff2cc;align=center;verticalAlign=middle;spacingLeft=4;spacingRight=4;overflow=hidden;points=[[0,0.5],[1,0.5]];portConstraint=eastwest;rotatable=0;whiteSpace=wrap;html=1;strokeWidth=0;" parent="YLUMR1cYHEGW7moaqAbl-89" vertex="1">
          <mxGeometry y="30" width="200" height="30" as="geometry" />
        </mxCell>
        <mxCell id="YLUMR1cYHEGW7moaqAbl-91" value="Id: &quot;1.0.1.2&quot;" style="text;strokeColor=none;fillColor=#fff2cc;align=left;verticalAlign=middle;spacingLeft=4;spacingRight=4;overflow=hidden;points=[[0,0.5],[1,0.5]];portConstraint=eastwest;rotatable=0;whiteSpace=wrap;html=1;strokeWidth=0;" parent="YLUMR1cYHEGW7moaqAbl-89" vertex="1">
          <mxGeometry y="60" width="200" height="30" as="geometry" />
        </mxCell>
        <mxCell id="YLUMR1cYHEGW7moaqAbl-92" value="text: &quot;Doit convenir à un maximum de client sous sa forme esthétique.&quot;" style="text;strokeColor=none;fillColor=#fff2cc;align=left;verticalAlign=middle;spacingLeft=4;spacingRight=4;overflow=hidden;points=[[0,0.5],[1,0.5]];portConstraint=eastwest;rotatable=0;whiteSpace=wrap;html=1;strokeWidth=0;" parent="YLUMR1cYHEGW7moaqAbl-89" vertex="1">
          <mxGeometry y="90" width="200" height="70" as="geometry" />
        </mxCell>
        <mxCell id="YLUMR1cYHEGW7moaqAbl-83" value="Être éco-conçu" style="swimlane;fontStyle=0;childLayout=stackLayout;horizontal=1;startSize=30;horizontalStack=0;resizeParent=1;resizeParentMax=0;resizeLast=0;collapsible=1;marginBottom=0;whiteSpace=wrap;html=1;strokeWidth=1;fillColor=#ffe6cc;strokeColor=default;" parent="1" vertex="1">
          <mxGeometry x="120" y="635" width="200" height="160" as="geometry">
            <mxRectangle x="280" y="970" width="120" height="30" as="alternateBounds" />
          </mxGeometry>
        </mxCell>
        <mxCell id="YLUMR1cYHEGW7moaqAbl-84" value="&amp;lt;&amp;lt;Requis&amp;gt;&amp;gt;" style="text;strokeColor=none;fillColor=#fff2cc;align=center;verticalAlign=middle;spacingLeft=4;spacingRight=4;overflow=hidden;points=[[0,0.5],[1,0.5]];portConstraint=eastwest;rotatable=0;whiteSpace=wrap;html=1;strokeWidth=0;" parent="YLUMR1cYHEGW7moaqAbl-83" vertex="1">
          <mxGeometry y="30" width="200" height="30" as="geometry" />
        </mxCell>
        <mxCell id="YLUMR1cYHEGW7moaqAbl-85" value="Id: &quot;1.0.1.1&quot;" style="text;strokeColor=none;fillColor=#fff2cc;align=left;verticalAlign=middle;spacingLeft=4;spacingRight=4;overflow=hidden;points=[[0,0.5],[1,0.5]];portConstraint=eastwest;rotatable=0;whiteSpace=wrap;html=1;strokeWidth=0;" parent="YLUMR1cYHEGW7moaqAbl-83" vertex="1">
          <mxGeometry y="60" width="200" height="30" as="geometry" />
        </mxCell>
        <mxCell id="YLUMR1cYHEGW7moaqAbl-86" value="text: &quot;Doit être résistant avec un minimum de matière.&lt;br&gt;Doit être recyclable&quot;" style="text;strokeColor=none;fillColor=#fff2cc;align=left;verticalAlign=middle;spacingLeft=4;spacingRight=4;overflow=hidden;points=[[0,0.5],[1,0.5]];portConstraint=eastwest;rotatable=0;whiteSpace=wrap;html=1;strokeWidth=0;" parent="YLUMR1cYHEGW7moaqAbl-83" vertex="1">
          <mxGeometry y="90" width="200" height="70" as="geometry" />
        </mxCell>
        <mxCell id="YLUMR1cYHEGW7moaqAbl-93" style="edgeStyle=orthogonalEdgeStyle;rounded=0;orthogonalLoop=1;jettySize=auto;html=1;exitX=1;exitY=0.5;exitDx=0;exitDy=0;entryX=0;entryY=0.5;entryDx=0;entryDy=0;" parent="1" source="YLUMR1cYHEGW7moaqAbl-75" target="YLUMR1cYHEGW7moaqAbl-83" edge="1">
          <mxGeometry relative="1" as="geometry" />
        </mxCell>
        <mxCell id="SPPRSnL4dUSBw2_I5MhD-5" style="edgeStyle=orthogonalEdgeStyle;rounded=0;orthogonalLoop=1;jettySize=auto;html=1;exitX=1;exitY=0.5;exitDx=0;exitDy=0;entryX=0;entryY=0.5;entryDx=0;entryDy=0;" edge="1" parent="1" source="YLUMR1cYHEGW7moaqAbl-77" target="YLUMR1cYHEGW7moaqAbl-89">
          <mxGeometry relative="1" as="geometry" />
        </mxCell>
      </root>
    </mxGraphModel>
  </diagram>
</mxfile>
